<svg width="56" height="57" viewBox="0 0 56 57" fill="none" xmlns="http://www.w3.org/2000/svg">
<g filter="url(#filter0_d_617_42)">
<path d="M27.9532 49C20.655 49 14.8226 46.8696 10.4561 42.6087C6.15205 38.2861 4 32.2035 4 24.3611C4 19.5444 4.99805 15.3144 6.99415 11.6711C8.99025 8.02773 11.7661 5.18714 15.3216 3.14934C18.9396 1.04978 23.1501 0 27.9532 0C33.3177 0 37.7778 1.04978 41.3333 3.14934C44.8889 5.18714 47.54 8.02773 49.2865 11.6711C51.0955 15.3144 52 19.5444 52 24.3611C52 32.2035 50.0039 38.2861 46.0117 42.6087C42.0819 46.8696 36.0624 49 27.9532 49ZM15.1345 22.7864C15.1345 24.7007 16.1014 26.0592 18.0351 26.862C19.9688 27.603 23.2749 27.9735 27.9532 27.9735C32.6316 27.9735 35.9376 27.603 37.8713 26.862C39.8051 26.0592 40.7719 24.7007 40.7719 22.7864C40.7719 20.9338 39.8051 19.637 37.8713 18.896C35.9376 18.155 32.6316 17.7845 27.9532 17.7845C23.2749 17.7845 19.9688 18.155 18.0351 18.896C16.1014 19.637 15.1345 20.9338 15.1345 22.7864Z" fill="#FF4A26"/>
</g>
<defs>
<filter id="filter0_d_617_42" x="0" y="0" width="56" height="57" filterUnits="userSpaceOnUse" colorInterpolationFilters="sRGB">
<feFlood floodOpacity="0" result="BackgroundImageFix"/>
<feColorMatrix in="SourceAlpha" type="matrix" values="0 0 0 0 0 0 0 0 0 0 0 0 0 0 0 0 0 0 127 0" result="hardAlpha"/>
<feOffset dy="4"/>
<feGaussianBlur stdDeviation="2"/>
<feComposite in2="hardAlpha" operator="out"/>
<feColorMatrix type="matrix" values="0 0 0 0 0 0 0 0 0 0 0 0 0 0 0 0 0 0 0.12 0"/>
<feBlend mode="normal" in2="BackgroundImageFix" result="effect1_dropShadow_617_42"/>
<feBlend mode="normal" in="SourceGraphic" in2="effect1_dropShadow_617_42" result="shape"/>
</filter>
</defs>
</svg>
