<svg width="3671" height="1026" viewBox="0 0 3671 1026" fill="none" xmlns="http://www.w3.org/2000/svg">
<path d="M3209.39 1022.06C3144.58 1022.06 3093.78 1004.54 3057 969.51C3021.09 934.479 3003.13 885.434 3003.13 822.376C3003.13 759.319 3024.15 713.777 3066.19 685.751C3108.23 656.85 3162.09 642.399 3227.78 642.399C3266.31 642.399 3301.34 645.027 3332.87 650.282C3364.4 655.536 3392.87 662.981 3418.26 672.614H3422.2V652.909C3422.2 632.766 3414.76 617.001 3399.87 605.616C3384.98 593.355 3366.15 587.662 3343.38 588.538C3321.49 588.538 3302.66 589.851 3286.89 592.479C3272.01 595.106 3253.18 599.485 3230.4 605.616C3188.37 616.125 3152.02 615.25 3121.37 602.988C3090.71 590.727 3069.7 566.643 3058.31 530.735C3047.8 493.076 3049.99 461.547 3064.88 436.149C3080.64 410.751 3104.29 391.045 3135.82 377.032C3162.97 363.895 3193.18 352.948 3226.46 344.19C3260.62 335.432 3297.4 331.053 3336.81 331.053C3451.54 331.053 3535.62 359.078 3589.04 415.129C3643.34 470.305 3670.49 563.14 3670.49 693.634V897.257C3670.49 933.165 3659.55 962.942 3637.65 986.589C3615.76 1010.24 3585.54 1022.06 3547.01 1022.06C3504.97 1022.06 3473.44 1010.24 3452.42 986.589C3432.28 962.942 3422.2 934.041 3422.2 899.884V869.669H3395.93C3395.93 892.44 3391.55 915.649 3382.79 939.295C3374.91 962.942 3357.83 982.647 3331.56 998.412C3306.16 1014.18 3265.44 1022.06 3209.39 1022.06ZM3222.52 734.358C3222.52 749.247 3227.78 759.757 3238.29 765.887C3249.67 772.018 3273.76 775.083 3310.54 775.083C3343.82 775.083 3367.03 772.018 3380.17 765.887C3393.3 759.757 3399.87 749.247 3399.87 734.358C3399.87 720.346 3393.3 710.712 3380.17 705.457C3367.03 699.326 3343.82 696.261 3310.54 696.261C3273.76 696.261 3249.67 699.326 3238.29 705.457C3227.78 710.712 3222.52 720.346 3222.52 734.358Z" fill="white"/>
<path d="M2714.71 1026C2668.29 1026 2626.25 1015.49 2588.59 994.474C2551.81 973.455 2522.91 943.678 2501.89 905.143C2480.87 865.732 2470.36 819.752 2470.36 767.204V535.993L2421.75 542.562C2395.48 546.065 2372.27 536.869 2352.13 514.974C2331.98 493.079 2321.91 465.491 2321.91 432.211C2321.91 398.931 2331.98 371.781 2352.13 350.762C2372.27 328.867 2395.48 319.671 2421.75 323.174L2470.36 329.743L2469.04 240.411C2468.17 205.379 2478.24 177.791 2499.26 157.648C2520.28 136.629 2550.93 126.119 2591.22 126.119C2631.51 126.119 2662.6 136.629 2684.49 157.648C2706.39 177.791 2716.46 205.379 2714.71 240.411L2712.08 329.743L2781.7 320.547C2829 313.54 2864.91 322.298 2889.43 346.821C2913.95 370.467 2926.21 398.931 2926.21 432.211C2926.21 465.491 2913.95 494.393 2889.43 518.915C2865.78 542.562 2831.19 551.32 2785.65 545.189L2712.08 535.993V731.734C2712.08 743.12 2716.02 753.629 2723.9 763.263C2731.78 772.021 2741.42 774.649 2752.8 771.145C2765.94 767.642 2779.52 760.198 2793.53 748.812C2808.42 737.427 2827.25 731.734 2850.02 731.734C2884.17 731.734 2910.45 743.996 2928.84 768.518C2947.23 793.04 2956.43 823.255 2956.43 859.163C2956.43 887.189 2946.35 914.339 2926.21 940.612C2906.94 966.011 2879.36 986.592 2843.45 1002.36C2807.54 1018.12 2764.63 1026 2714.71 1026Z" fill="white"/>
<path d="M1970.59 1022.06C1933.81 1022.06 1903.59 1010.67 1879.94 987.902C1857.17 964.255 1845.79 934.916 1845.79 899.884V606.929C1823.02 612.184 1802.44 609.118 1784.04 597.733C1765.65 586.348 1750.76 569.27 1739.38 546.499C1728.87 523.728 1723.61 498.768 1723.61 471.618C1723.61 444.468 1729.31 419.508 1740.69 396.737C1752.08 373.091 1766.97 355.137 1785.36 342.875C1804.63 330.614 1825.64 327.987 1848.42 334.993C1852.79 270.184 1863.3 212.819 1879.94 162.899C1896.58 112.102 1921.98 72.2535 1956.14 43.3521C1991.17 14.4507 2036.71 0 2092.76 0C2140.93 0 2179.47 10.0717 2208.37 30.2151C2237.27 49.4827 2257.41 73.5672 2268.8 102.469C2281.06 131.37 2285 160.709 2280.62 190.486C2276.24 219.388 2264.42 244.786 2245.15 266.681C2225.89 287.7 2197.42 298.21 2159.76 298.21C2133.49 298.21 2111.59 292.955 2094.08 282.445C2076.56 271.936 2061.67 259.237 2049.41 244.348C2038.03 228.584 2027.95 213.695 2019.2 199.682C1997.3 164.65 1974.97 152.827 1952.2 164.212C1940.81 170.343 1934.68 180.415 1933.81 194.427C1932.93 207.564 1937.31 222.891 1946.94 240.407L1975.84 290.327C1990.73 314.85 2006.5 331.052 2023.14 338.934C2039.78 345.941 2060.8 347.692 2086.2 344.189L2149.25 334.993C2189.54 328.863 2222.38 339.81 2247.78 367.836C2273.18 395.861 2285.88 430.455 2285.88 471.618C2285.88 514.532 2272.74 549.126 2246.47 575.4C2221.07 600.798 2189.54 611.308 2151.88 606.929L2096.7 600.36V899.884C2096.7 934.916 2085.32 964.255 2062.55 987.902C2039.78 1010.67 2009.12 1022.06 1970.59 1022.06Z" fill="white"/>
<path d="M1379.31 1024.68C1276.84 1024.68 1194.96 994.468 1133.65 934.038C1073.22 872.732 1043 786.466 1043 675.239C1043 606.927 1057.02 546.935 1085.04 495.262C1113.07 443.59 1152.04 403.303 1201.96 374.402C1252.76 344.625 1311.88 329.736 1379.31 329.736C1454.63 329.736 1517.25 344.625 1567.17 374.402C1617.09 403.303 1654.31 443.59 1678.84 495.262C1704.23 546.935 1716.93 606.927 1716.93 675.239C1716.93 786.466 1688.91 872.732 1632.86 934.038C1577.68 994.468 1493.17 1024.68 1379.31 1024.68ZM1199.34 652.906C1199.34 680.056 1212.91 699.324 1240.06 710.709C1267.21 721.219 1313.63 726.473 1379.31 726.473C1445 726.473 1491.41 721.219 1518.56 710.709C1545.71 699.324 1559.29 680.056 1559.29 652.906C1559.29 626.632 1545.71 608.24 1518.56 597.731C1491.41 587.221 1445 581.966 1379.31 581.966C1313.63 581.966 1267.21 587.221 1240.06 597.731C1212.91 608.24 1199.34 626.632 1199.34 652.906Z" fill="white"/>
<path d="M646.771 1024.68C544.302 1024.68 462.415 994.468 401.109 934.038C340.679 872.732 310.464 786.466 310.464 675.239C310.464 606.927 324.477 546.935 352.502 495.262C380.528 443.59 419.501 403.303 469.421 374.402C520.218 344.625 579.334 329.736 646.771 329.736C722.09 329.736 784.709 344.625 834.63 374.402C884.55 403.303 921.772 443.59 946.294 495.262C971.692 546.935 984.391 606.927 984.391 675.239C984.391 786.466 956.366 872.732 900.315 934.038C845.139 994.468 760.625 1024.68 646.771 1024.68ZM466.794 652.906C466.794 680.056 480.369 699.324 507.519 710.709C534.668 721.219 581.086 726.473 646.771 726.473C712.456 726.473 758.873 721.219 786.023 710.709C813.173 699.324 826.747 680.056 826.747 652.906C826.747 626.632 813.173 608.24 786.023 597.731C758.873 587.221 712.456 581.966 646.771 581.966C581.086 581.966 534.668 587.221 507.519 597.731C480.369 608.24 466.794 626.632 466.794 652.906Z" fill="white"/>
<path d="M128.743 1022.06C85.8283 1022.06 53.4238 1010.67 31.5288 987.903C10.5096 965.132 0 936.669 0 902.513V140.567C0 102.908 10.5096 71.8169 31.5288 47.2945C53.4238 21.8963 85.8283 9.19727 128.743 9.19727C167.278 9.19727 197.055 21.8963 218.074 47.2945C239.093 71.8169 249.603 102.032 249.603 137.94V902.513C249.603 936.669 239.093 965.132 218.074 987.903C197.055 1010.67 167.278 1022.06 128.743 1022.06Z" fill="white"/>
</svg>
