<svg width="167" height="255" viewBox="0 0 167 255" fill="none" xmlns="http://www.w3.org/2000/svg">
<path d="M154.672 125.169C155.524 126.572 155.524 128.331 154.672 129.734L87.4402 240.521C85.7197 243.356 81.5948 243.357 79.8741 240.522L12.6387 129.742C11.7871 128.338 11.7871 126.58 12.6387 125.177L79.8743 14.3893C81.5949 11.5542 85.7198 11.5542 87.4403 14.3892L154.672 125.169ZM44.2501 120.739C42.4663 123.677 44.5881 127.43 48.0328 127.43H119.285C122.73 127.43 124.852 123.677 123.068 120.739L87.4401 62.056C85.7193 59.2217 81.5954 59.2218 79.8747 62.0562L44.2501 120.739ZM83.6573 89.6723C90.5863 89.6723 96.2041 95.2838 96.2041 102.205C96.2034 109.125 90.5856 114.733 83.6573 114.733C76.7286 114.733 71.1113 109.125 71.1102 102.205C71.1102 95.2838 76.7283 89.6723 83.6573 89.6723Z" fill="url(#paint0_linear_618_1214)"/>
<defs>
<linearGradient id="paint0_linear_618_1214" x1="83.6553" y1="101.522" x2="83.6553" y2="205.255" gradientUnits="userSpaceOnUse">
<stop stop-color="#FE7109"/>
<stop offset="1" stop-color="#003BFF"/>
</linearGradient>
</defs>
</svg>
