<svg width="180" height="180" viewBox="0 0 180 180" fill="none" xmlns="http://www.w3.org/2000/svg">
<rect width="180" height="180" rx="15.5396" fill="white"/>
<rect width="180" height="180" rx="15.5396" fill="url(#paint0_linear_76_3336)"/>
<path fill-rule="evenodd" clip-rule="evenodd" d="M89.3526 43.7539C92.8736 43.754 96.2614 44.9479 103.036 47.3355L110.853 50.09C122.14 54.0677 127.783 56.0568 130.999 60.5996C134.215 65.1425 134.215 71.1263 134.215 83.0934V95.6092C134.215 107.576 134.214 113.56 130.999 118.103C127.783 122.646 122.14 124.635 110.853 128.613L103.036 131.368C96.2614 133.755 92.8736 134.949 89.3526 134.949C85.8317 134.949 82.4439 133.755 75.6689 131.368L67.8519 128.613C56.5651 124.635 50.9217 122.646 47.706 118.103C44.4904 113.56 44.4902 107.576 44.4902 95.6092V83.0934C44.4902 71.1263 44.4903 65.1425 47.706 60.5996C50.9218 56.0568 56.5652 54.0677 67.8519 50.09L75.6689 47.3355C82.4439 44.9479 85.8317 43.7539 89.3526 43.7539ZM64.915 69.5705C58.1192 67.3123 54.7212 66.1836 52.3726 67.8779C50.024 69.5724 50.0237 73.153 50.0237 80.3143V97.9164C50.0237 106.373 50.0237 110.602 52.2977 113.811C54.5718 117.019 58.5617 118.42 66.5413 121.222L78.4415 125.4C82.687 126.891 86.7198 123.8 86.7198 119.301V84.8381C86.7198 80.0184 83.3293 75.6896 78.7555 74.1697L64.915 69.5705ZM126.332 67.8779C123.984 66.1835 120.585 67.3122 113.789 69.5705L99.9487 74.1697C95.5766 75.6226 92.3805 79.7475 92.3805 84.3547V119.623C92.3805 123.879 96.2477 126.81 100.263 125.4L112.163 121.222C120.143 118.42 124.132 117.019 126.407 113.811C128.681 110.602 128.681 106.373 128.681 97.9164V80.3143C128.681 73.1532 128.681 69.5724 126.332 67.8779Z" fill="white"/>
<defs>
<linearGradient id="paint0_linear_76_3336" x1="90" y1="3.3619e-06" x2="-22.8067" y2="252.491" gradientUnits="userSpaceOnUse">
<stop stop-color="#212121"/>
<stop offset="1" stop-color="#2AA993"/>
</linearGradient>
</defs>
</svg>
